<svg width="42" height="42" viewBox="0 0 42 42" fill="none" xmlns="http://www.w3.org/2000/svg">
<path d="M20.8333 6.94446C22.6751 6.94446 24.4415 7.6761 25.7438 8.97844C27.0461 10.2808 27.7778 12.0471 27.7778 13.8889C27.7778 15.7307 27.0461 17.497 25.7438 18.7994C24.4415 20.1017 22.6751 20.8333 20.8333 20.8333C18.9916 20.8333 17.2252 20.1017 15.9229 18.7994C14.6205 17.497 13.8889 15.7307 13.8889 13.8889C13.8889 12.0471 14.6205 10.2808 15.9229 8.97844C17.2252 7.6761 18.9916 6.94446 20.8333 6.94446ZM20.8333 24.3056C28.507 24.3056 34.7222 27.4132 34.7222 31.25V34.7222H6.94446V31.25C6.94446 27.4132 13.1597 24.3056 20.8333 24.3056Z" fill="black"/>
</svg>
