<svg width="18" height="18" viewBox="0 0 18 18" fill="none" xmlns="http://www.w3.org/2000/svg">
<path d="M8.97361 10.1077C11.6393 10.1077 13.7771 7.83692 13.7771 5.06769C13.7771 2.29846 11.6393 0 8.97361 0C6.30792 0 4.17009 2.27077 4.17009 5.04C4.17009 7.80923 6.30792 10.1077 8.97361 10.1077ZM8.97361 1.32923C10.9267 1.32923 12.5103 2.99077 12.5103 5.04C12.5103 7.08923 10.9267 8.75077 8.97361 8.75077C7.02053 8.75077 5.43695 7.11692 5.43695 5.06769C5.43695 3.01846 7.02053 1.32923 8.97361 1.32923ZM0.633431 18H17.3666C17.7097 18 18 17.6954 18 17.3354C18 13.8462 15.2815 10.9938 11.956 10.9938H6.04399C2.71848 10.9938 0 13.8462 0 17.3354C0 17.6954 0.290323 18 0.633431 18ZM6.04399 12.3231H11.956C14.3842 12.3231 16.3636 14.2062 16.6804 16.6708H1.31965C1.63636 14.2062 3.61584 12.3231 6.04399 12.3231Z" fill="black"/>
</svg>
