<svg width="1367" height="796" viewBox="0 0 1367 796" fill="none" xmlns="http://www.w3.org/2000/svg">
<path d="M418.443 708.625C417.968 708.625 417.567 708.453 417.239 708.109L400.161 690.863C399.979 690.711 399.728 690.462 399.409 690.119C399.089 689.775 398.583 689.149 397.89 688.242C397.196 687.335 396.576 686.404 396.029 685.449C395.481 684.494 394.993 683.339 394.565 681.983C394.136 680.627 393.921 679.309 393.921 678.029C393.921 673.828 395.08 670.543 397.397 668.174C399.714 665.806 402.916 664.622 407.003 664.622C408.134 664.622 409.288 664.827 410.465 665.238C411.642 665.649 412.737 666.203 413.749 666.9C414.762 667.597 415.633 668.251 416.363 668.862C417.093 669.473 417.786 670.122 418.443 670.81C419.1 670.122 419.793 669.473 420.523 668.862C421.253 668.251 422.124 667.597 423.136 666.9C424.149 666.203 425.244 665.649 426.421 665.238C427.597 664.827 428.751 664.622 429.883 664.622C433.969 664.622 437.171 665.806 439.489 668.174C441.806 670.543 442.964 673.828 442.964 678.029C442.964 682.25 440.875 686.547 436.697 690.921L419.647 708.109C419.319 708.453 418.917 708.625 418.443 708.625Z" fill="#EFA42C" fill-opacity="0.3"/>
<path d="M964.521 504.003C964.047 504.003 963.646 503.831 963.317 503.487L946.24 486.241C946.057 486.088 945.807 485.84 945.487 485.496C945.168 485.153 944.662 484.527 943.968 483.62C943.275 482.713 942.655 481.782 942.107 480.827C941.56 479.872 941.072 478.716 940.643 477.36C940.214 476.004 940 474.687 940 473.407C940 469.205 941.159 465.921 943.476 463.552C945.793 461.184 948.995 460 953.082 460C954.213 460 955.367 460.205 956.544 460.616C957.721 461.027 958.815 461.58 959.828 462.277C960.84 462.975 961.712 463.629 962.441 464.24C963.171 464.851 963.865 465.5 964.521 466.188C965.178 465.5 965.872 464.851 966.601 464.24C967.331 463.629 968.202 462.975 969.215 462.277C970.228 461.58 971.322 461.027 972.499 460.616C973.676 460.205 974.83 460 975.961 460C980.048 460 983.25 461.184 985.567 463.552C987.884 465.921 989.043 469.205 989.043 473.407C989.043 477.628 986.954 481.925 982.776 486.299L965.726 503.487C965.397 503.831 964.996 504.003 964.521 504.003Z" fill="#EFA42C" fill-opacity="0.3"/>
<path d="M1165.19 564.569C1164.72 564.569 1164.32 564.397 1163.99 564.053L1146.91 546.807C1146.73 546.655 1146.48 546.406 1146.16 546.063C1145.84 545.719 1145.33 545.093 1144.64 544.186C1143.95 543.279 1143.33 542.348 1142.78 541.393C1142.23 540.438 1141.74 539.283 1141.32 537.927C1140.89 536.571 1140.67 535.253 1140.67 533.973C1140.67 529.772 1141.83 526.487 1144.15 524.118C1146.47 521.75 1149.67 520.566 1153.75 520.566C1154.89 520.566 1156.04 520.771 1157.22 521.182C1158.39 521.593 1159.49 522.147 1160.5 522.844C1161.51 523.541 1162.38 524.195 1163.11 524.806C1163.84 525.417 1164.54 526.067 1165.19 526.754C1165.85 526.067 1166.54 525.417 1167.27 524.806C1168 524.195 1168.87 523.541 1169.89 522.844C1170.9 522.147 1171.99 521.593 1173.17 521.182C1174.35 520.771 1175.5 520.566 1176.63 520.566C1180.72 520.566 1183.92 521.75 1186.24 524.118C1188.56 526.487 1189.72 529.772 1189.72 533.973C1189.72 538.194 1187.63 542.491 1183.45 546.865L1166.4 564.053C1166.07 564.397 1165.67 564.569 1165.19 564.569Z" fill="#EFA42C" fill-opacity="0.3"/>
<path d="M139.521 549.625C139.047 549.625 138.646 549.453 138.317 549.109L121.24 531.863C121.057 531.71 120.807 531.462 120.487 531.118C120.168 530.774 119.662 530.149 118.968 529.242C118.275 528.335 117.655 527.404 117.107 526.449C116.56 525.494 116.072 524.338 115.643 522.982C115.214 521.626 115 520.309 115 519.029C115 514.827 116.159 511.542 118.476 509.174C120.793 506.806 123.995 505.622 128.082 505.622C129.213 505.622 130.367 505.827 131.544 506.238C132.721 506.648 133.815 507.202 134.828 507.899C135.84 508.596 136.712 509.251 137.441 509.862C138.171 510.473 138.865 511.122 139.521 511.81C140.178 511.122 140.872 510.473 141.601 509.862C142.331 509.251 143.202 508.596 144.215 507.899C145.228 507.202 146.322 506.648 147.499 506.238C148.676 505.827 149.83 505.622 150.961 505.622C155.048 505.622 158.25 506.806 160.567 509.174C162.884 511.542 164.043 514.827 164.043 519.029C164.043 523.25 161.954 527.547 157.776 531.92L140.726 549.109C140.397 549.453 139.996 549.625 139.521 549.625Z" fill="#EFA42C" fill-opacity="0.3"/>
<path d="M188.266 243.248C187.803 243.145 187.451 242.889 187.209 242.482L174.478 221.931C174.335 221.743 174.147 221.446 173.914 221.041C173.68 220.636 173.329 219.915 172.859 218.879C172.389 217.843 171.996 216.799 171.679 215.749C171.363 214.698 171.149 213.465 171.039 212.049C170.929 210.633 171.02 209.302 171.31 208.054C172.264 203.958 174.14 201.01 176.936 199.209C179.733 197.407 183.123 196.954 187.107 197.849C188.21 198.097 189.288 198.549 190.342 199.207C191.396 199.865 192.338 200.645 193.166 201.546C193.995 202.447 194.696 203.276 195.269 204.031C195.841 204.787 196.37 205.572 196.854 206.386C197.65 205.859 198.473 205.378 199.324 204.942C200.174 204.506 201.172 204.059 202.317 203.601C203.463 203.144 204.655 202.843 205.896 202.701C207.136 202.558 208.308 202.611 209.411 202.858C213.395 203.753 216.247 205.609 217.968 208.424C219.689 211.24 220.072 214.696 219.118 218.792C218.16 222.907 215.147 226.638 210.081 229.987L189.557 243.009C189.158 243.273 188.728 243.352 188.266 243.248Z" fill="#EFA42C" fill-opacity="0.3"/>
<path d="M1000.31 234.963C999.834 234.963 999.433 234.791 999.104 234.448L982.027 217.202C981.844 217.049 981.594 216.801 981.274 216.457C980.955 216.113 980.449 215.488 979.755 214.58C979.062 213.673 978.442 212.742 977.894 211.787C977.347 210.832 976.859 209.677 976.43 208.321C976.001 206.965 975.787 205.647 975.787 204.368C975.787 200.166 976.946 196.881 979.263 194.513C981.58 192.145 984.782 190.96 988.869 190.96C990 190.96 991.154 191.166 992.331 191.576C993.508 191.987 994.602 192.541 995.615 193.238C996.628 193.935 997.499 194.589 998.229 195.2C998.958 195.811 999.652 196.461 1000.31 197.148C1000.97 196.461 1001.66 195.811 1002.39 195.2C1003.12 194.589 1003.99 193.935 1005 193.238C1006.01 192.541 1007.11 191.987 1008.29 191.576C1009.46 191.166 1010.62 190.96 1011.75 190.96C1015.84 190.96 1019.04 192.145 1021.35 194.513C1023.67 196.881 1024.83 200.166 1024.83 204.368C1024.83 208.588 1022.74 212.885 1018.56 217.259L1001.51 234.448C1001.18 234.791 1000.78 234.963 1000.31 234.963Z" fill="#EFA42C" fill-opacity="0.3"/>
<path d="M498.042 242.436C497.567 242.436 497.166 242.264 496.838 241.92L479.76 224.674C479.578 224.521 479.327 224.273 479.008 223.929C478.688 223.585 478.182 222.96 477.489 222.053C476.795 221.146 476.175 220.214 475.628 219.26C475.08 218.305 474.592 217.149 474.163 215.793C473.735 214.437 473.52 213.119 473.52 211.84C473.52 207.638 474.679 204.353 476.996 201.985C479.313 199.617 482.515 198.433 486.602 198.433C487.733 198.433 488.887 198.638 490.064 199.049C491.241 199.459 492.336 200.013 493.348 200.71C494.361 201.407 495.232 202.061 495.962 202.673C496.692 203.284 497.385 203.933 498.042 204.621C498.699 203.933 499.392 203.284 500.122 202.673C500.852 202.061 501.723 201.407 502.735 200.71C503.748 200.013 504.843 199.459 506.019 199.049C507.196 198.638 508.35 198.433 509.481 198.433C513.568 198.433 516.77 199.617 519.088 201.985C521.405 204.353 522.563 207.638 522.563 211.84C522.563 216.061 520.474 220.358 516.296 224.731L499.246 241.92C498.918 242.264 498.516 242.436 498.042 242.436Z" fill="#EFA42C" fill-opacity="0.3"/>
<path d="M964.521 751.003C964.047 751.003 963.646 750.831 963.317 750.487L946.24 733.241C946.057 733.088 945.807 732.84 945.487 732.496C945.168 732.153 944.662 731.527 943.968 730.62C943.275 729.713 942.655 728.782 942.107 727.827C941.56 726.872 941.072 725.716 940.643 724.36C940.214 723.004 940 721.687 940 720.407C940 716.205 941.159 712.921 943.476 710.552C945.793 708.184 948.995 707 953.082 707C954.213 707 955.367 707.205 956.544 707.616C957.721 708.027 958.815 708.58 959.828 709.277C960.84 709.975 961.712 710.629 962.441 711.24C963.171 711.851 963.865 712.5 964.521 713.188C965.178 712.5 965.872 711.851 966.601 711.24C967.331 710.629 968.202 709.975 969.215 709.277C970.228 708.58 971.322 708.027 972.499 707.616C973.676 707.205 974.83 707 975.961 707C980.048 707 983.25 708.184 985.567 710.552C987.884 712.921 989.043 716.205 989.043 720.407C989.043 724.628 986.954 728.925 982.776 733.299L965.726 750.487C965.397 750.831 964.996 751.003 964.521 751.003Z" fill="#EFA42C" fill-opacity="0.3"/>
<path d="M640.521 608.003C640.047 608.003 639.646 607.831 639.317 607.487L622.24 590.241C622.057 590.088 621.807 589.84 621.487 589.496C621.168 589.153 620.662 588.527 619.968 587.62C619.275 586.713 618.655 585.782 618.107 584.827C617.56 583.872 617.072 582.716 616.643 581.36C616.214 580.004 616 578.687 616 577.407C616 573.205 617.159 569.921 619.476 567.552C621.793 565.184 624.995 564 629.082 564C630.213 564 631.367 564.205 632.544 564.616C633.721 565.027 634.815 565.58 635.828 566.277C636.84 566.975 637.712 567.629 638.441 568.24C639.171 568.851 639.865 569.5 640.521 570.188C641.178 569.5 641.872 568.851 642.601 568.24C643.331 567.629 644.202 566.975 645.215 566.277C646.228 565.58 647.322 565.027 648.499 564.616C649.676 564.205 650.83 564 651.961 564C656.048 564 659.25 565.184 661.567 567.552C663.884 569.921 665.043 573.205 665.043 577.407C665.043 581.628 662.954 585.925 658.776 590.299L641.726 607.487C641.397 607.831 640.996 608.003 640.521 608.003Z" fill="#EFA42C" fill-opacity="0.3"/>
<path d="M730.521 383.003C730.047 383.003 729.646 382.831 729.317 382.487L712.24 365.241C712.057 365.088 711.807 364.84 711.487 364.496C711.168 364.153 710.662 363.527 709.968 362.62C709.275 361.713 708.655 360.782 708.107 359.827C707.56 358.872 707.072 357.716 706.643 356.36C706.214 355.004 706 353.687 706 352.407C706 348.205 707.159 344.921 709.476 342.552C711.793 340.184 714.995 339 719.082 339C720.213 339 721.367 339.205 722.544 339.616C723.721 340.027 724.815 340.58 725.828 341.277C726.84 341.975 727.712 342.629 728.441 343.24C729.171 343.851 729.865 344.5 730.521 345.188C731.178 344.5 731.872 343.851 732.601 343.24C733.331 342.629 734.202 341.975 735.215 341.277C736.228 340.58 737.322 340.027 738.499 339.616C739.676 339.205 740.83 339 741.961 339C746.048 339 749.25 340.184 751.567 342.552C753.884 344.921 755.043 348.205 755.043 352.407C755.043 356.628 752.954 360.925 748.776 365.299L731.726 382.487C731.397 382.831 730.996 383.003 730.521 383.003Z" fill="#EFA42C" fill-opacity="0.3"/>
<path d="M1301.87 195.003C1301.39 195.003 1300.99 194.831 1300.66 194.487L1283.58 177.241C1283.4 177.088 1283.15 176.84 1282.83 176.496C1282.51 176.153 1282.01 175.527 1281.31 174.62C1280.62 173.713 1280 172.782 1279.45 171.827C1278.9 170.872 1278.42 169.716 1277.99 168.36C1277.56 167.004 1277.34 165.687 1277.34 164.407C1277.34 160.205 1278.5 156.921 1280.82 154.552C1283.14 152.184 1286.34 151 1290.43 151C1291.56 151 1292.71 151.205 1293.89 151.616C1295.07 152.027 1296.16 152.58 1297.17 153.277C1298.19 153.975 1299.06 154.629 1299.79 155.24C1300.52 155.851 1301.21 156.5 1301.87 157.188C1302.52 156.5 1303.22 155.851 1303.95 155.24C1304.68 154.629 1305.55 153.975 1306.56 153.277C1307.57 152.58 1308.67 152.027 1309.84 151.616C1311.02 151.205 1312.17 151 1313.31 151C1317.39 151 1320.59 152.184 1322.91 154.552C1325.23 156.921 1326.39 160.205 1326.39 164.407C1326.39 168.628 1324.3 172.925 1320.12 177.299L1303.07 194.487C1302.74 194.831 1302.34 195.003 1301.87 195.003Z" fill="#EFA42C" fill-opacity="0.3"/>
<g clip-path="url(#clip0_43_713)">
<path d="M1169.98 88.1335C1172.72 85.399 1176.69 85.0007 1178.82 87.249C1179.87 88.3688 1180.32 89.9374 1180.08 91.6787C1179.86 93.3545 1179.01 94.9909 1177.71 96.2904C1175.35 98.6447 1172.09 99.2678 1169.86 97.9648C1169.5 97.7546 1169.17 97.4866 1168.87 97.175C1166.74 94.9239 1167.24 90.8748 1169.98 88.1335ZM1182.03 110.245C1180.82 111.458 1179.3 112.228 1177.77 112.402C1176.63 112.537 1175.57 112.332 1174.71 111.824C1174.35 111.618 1174.04 111.361 1173.76 111.061C1172.76 110.021 1172.34 108.541 1172.56 106.906C1172.78 105.341 1173.57 103.813 1174.79 102.593C1177.35 100.027 1181.07 99.6606 1183.07 101.77C1184.06 102.817 1184.48 104.297 1184.26 105.931C1184.04 107.496 1183.25 109.024 1182.03 110.245ZM1154.82 82.8933C1155.27 81.097 1156.23 79.5294 1157.55 78.488C1158.91 77.4039 1160.47 77.0122 1161.95 77.375C1164.93 78.1226 1166.58 81.8071 1165.63 85.5886C1164.68 89.3769 1161.48 91.844 1158.5 91.1069C1158.08 90.9982 1157.69 90.8383 1157.33 90.6281C1155.1 89.3251 1154 86.1494 1154.82 82.8933ZM1169.94 119.693C1168.85 122.921 1166.69 125.098 1164.02 125.662C1162.3 126.031 1160.53 125.695 1158.9 124.739C1157.96 124.193 1157.07 123.436 1156.26 122.496C1154.68 120.663 1152.75 119.084 1150.35 117.677C1147.95 116.271 1145.64 115.367 1143.28 114.9C1139.97 114.246 1137.56 112.342 1136.69 109.666C1135.83 107.039 1136.61 104.052 1138.8 101.466C1142.46 97.1654 1149.96 95.3511 1155.61 94.5886C1157.99 94.3307 1160.16 94.6979 1162.09 95.6827L1162.1 95.6624L1162.64 95.9795C1162.65 95.9834 1162.65 95.9834 1162.66 95.9872L1162.9 96.1324C1163.05 96.227 1163.17 96.2891 1163.19 96.3005L1163.18 96.3208C1165.05 97.5668 1166.49 99.3368 1167.36 101.467C1169.55 106.815 1171.76 114.315 1169.94 119.693ZM1144.23 93.7816C1143.83 93.6842 1143.46 93.5358 1143.11 93.3295C1142.24 92.8212 1141.53 91.9944 1141.08 90.9267C1140.45 89.4918 1140.35 87.7742 1140.77 86.0946C1141.19 84.4082 1142.1 82.9488 1143.32 81.9723C1144.6 80.9569 1146.07 80.585 1147.46 80.9289C1150.26 81.6321 1151.81 85.0782 1150.92 88.6226C1150.49 90.309 1149.59 91.7684 1148.37 92.745C1147.09 93.7603 1145.61 94.1323 1144.23 93.7816Z" fill="black" fill-opacity="0.5"/>
</g>
<g clip-path="url(#clip1_43_713)">
<path d="M807.155 70.6603C807.485 66.9226 810.175 64.1176 813.155 64.4085C814.632 64.5603 815.941 65.4221 816.847 66.8471C817.721 68.2173 818.11 69.9524 817.954 71.728C817.669 74.9463 815.643 77.4673 813.182 77.9261C812.785 78.0001 812.37 78.0165 811.953 77.9799C808.978 77.6803 806.826 74.4054 807.155 70.6603ZM829.841 79.1902C829.693 80.8499 829.049 82.3732 828.021 83.4725C827.263 84.2928 826.351 84.8136 825.391 84.9925C825.002 85.0652 824.608 85.0775 824.213 85.0369C822.83 84.9058 821.596 84.0909 820.744 82.755C819.931 81.4726 819.564 79.8555 819.711 78.1884C820.017 74.6839 822.54 72.0627 825.337 72.3343C826.722 72.4727 827.955 73.2876 828.808 74.6236C829.62 75.9059 829.987 77.5231 829.841 79.1902ZM792.654 76.4455C791.872 74.8447 791.613 73.0854 791.937 71.4919C792.272 69.8354 793.185 68.5592 794.509 67.8854C797.186 66.5396 800.701 68.1874 802.349 71.5565C803.997 74.9329 803.162 78.7648 800.493 80.1166C800.117 80.3012 799.724 80.4355 799.327 80.5095C796.866 80.9684 794.072 79.3462 792.654 76.4455ZM826.757 93.7683C827.95 96.8253 827.707 99.7841 826.081 101.887C825.035 103.249 823.51 104.128 821.706 104.465C820.674 104.657 819.542 104.67 818.36 104.494C816.05 104.154 813.636 104.223 810.981 104.718C808.325 105.213 806.048 106.019 804.014 107.169C801.15 108.794 798.181 108.928 795.874 107.52C793.603 106.143 792.317 103.47 792.335 100.187C792.375 94.7183 796.802 88.6378 800.514 84.4982C802.125 82.7946 803.958 81.6901 806 81.1873L805.996 81.1652L806.595 81.0535C806.602 81.0521 806.602 81.0521 806.609 81.0508L806.883 80.9997C807.051 80.9761 807.179 80.9445 807.201 80.9405L807.205 80.9626C809.364 80.6896 811.533 81.0709 813.503 82.0763C818.451 84.6012 824.761 88.6795 826.757 93.7683ZM791.581 91.1214C791.226 91.302 790.855 91.4323 790.465 91.5049C789.505 91.6839 788.468 91.5264 787.466 91.0345C786.113 90.3792 784.967 89.1895 784.234 87.694C783.5 86.191 783.263 84.5497 783.562 83.0601C783.879 81.5062 784.738 80.3011 785.98 79.6728C788.494 78.411 791.787 79.9477 793.328 83.1077C794.062 84.6106 794.299 86.252 794.001 87.7415C793.684 89.2955 792.825 90.5006 791.581 91.1214Z" fill="black" fill-opacity="0.5"/>
</g>
<path d="M920.64 271.356C921.646 267.742 924.802 265.477 927.679 266.309C929.103 266.729 930.233 267.817 930.864 269.384C931.474 270.891 931.54 272.668 931.063 274.385C930.196 277.497 927.745 279.604 925.242 279.604C924.838 279.604 924.427 279.544 924.024 279.432C921.154 278.592 919.634 274.978 920.64 271.356ZM941.39 283.901C940.942 285.505 940.032 286.885 938.821 287.778C937.925 288.445 936.934 288.79 935.958 288.79C935.562 288.79 935.173 288.73 934.791 288.617C933.455 288.235 932.391 287.208 931.797 285.738C931.231 284.328 931.165 282.671 931.613 281.059C932.553 277.67 935.51 275.555 938.212 276.335C939.547 276.725 940.612 277.752 941.206 279.222C941.771 280.631 941.837 282.289 941.39 283.901ZM905.329 274.385C904.852 272.668 904.918 270.891 905.527 269.384C906.159 267.817 907.289 266.729 908.713 266.309C911.59 265.477 914.746 267.742 915.752 271.356C916.757 274.978 915.238 278.592 912.368 279.432C911.964 279.544 911.553 279.604 911.15 279.604C908.647 279.604 906.195 277.497 905.329 274.385ZM935.701 297.668C936.318 300.892 935.54 303.757 933.558 305.526C932.281 306.674 930.622 307.259 928.787 307.259C927.738 307.259 926.622 307.064 925.492 306.674C923.282 305.916 920.897 305.541 918.196 305.541C915.495 305.541 913.109 305.916 910.9 306.674C907.788 307.746 904.845 307.334 902.834 305.526C900.852 303.757 900.074 300.892 900.69 297.668C901.725 292.299 907.186 287.133 911.59 283.743C913.484 282.364 915.487 281.614 917.587 281.494L917.587 281.471L918.196 281.471C918.203 281.471 918.203 281.471 918.211 281.471L918.489 281.471C918.658 281.479 918.79 281.471 918.812 281.471L918.812 281.494C920.985 281.621 923.047 282.394 924.802 283.743C929.206 287.133 934.666 292.299 935.701 297.668ZM901.601 288.617C901.219 288.73 900.83 288.79 900.434 288.79C899.457 288.79 898.466 288.445 897.571 287.778C896.36 286.885 895.45 285.505 895.002 283.901C894.554 282.289 894.62 280.631 895.186 279.222C895.78 277.752 896.844 276.725 898.18 276.335C900.881 275.555 903.839 277.67 904.779 281.059C905.226 282.671 905.16 284.328 904.595 285.738C904.001 287.208 902.936 288.235 901.601 288.617Z" fill="black" fill-opacity="0.5"/>
<g clip-path="url(#clip2_43_713)">
<path d="M183.354 638.699C183.641 634.957 186.3 632.122 189.283 632.379C190.761 632.514 192.081 633.36 193.003 634.775C193.892 636.135 194.3 637.866 194.164 639.643C193.916 642.864 191.919 645.408 189.463 645.895C189.067 645.974 188.653 645.995 188.235 645.963C185.257 645.697 183.068 642.447 183.354 638.699ZM206.135 646.969C206.006 648.63 205.38 650.161 204.365 651.272C203.615 652.101 202.71 652.632 201.752 652.822C201.363 652.899 200.97 652.916 200.574 652.88C199.19 652.764 197.947 651.963 197.079 650.637C196.252 649.364 195.867 647.751 195.995 646.083C196.261 642.575 198.754 639.925 201.554 640.165C202.94 640.287 204.183 641.088 205.05 642.414C205.877 643.687 206.263 645.3 206.135 646.969ZM168.919 644.649C168.119 643.057 167.841 641.301 168.147 639.704C168.463 638.044 169.362 636.757 170.677 636.068C173.339 634.692 176.873 636.3 178.558 639.65C180.245 643.007 179.453 646.848 176.8 648.23C176.426 648.419 176.035 648.558 175.639 648.637C173.183 649.124 170.371 647.533 168.919 644.649ZM203.217 661.581C204.445 664.624 204.236 667.586 202.634 669.707C201.603 671.081 200.088 671.978 198.288 672.335C197.259 672.539 196.127 672.565 194.942 672.402C192.628 672.089 190.216 672.185 187.566 672.711C184.916 673.236 182.649 674.068 180.628 675.241C177.782 676.898 174.815 677.066 172.493 675.684C170.206 674.334 168.889 671.675 168.871 668.392C168.848 662.924 173.206 656.793 176.871 652.612C178.462 650.89 180.283 649.764 182.319 649.238L182.314 649.216L182.912 649.098C182.919 649.096 182.919 649.096 182.926 649.095L183.2 649.04C183.367 649.015 183.495 648.982 183.517 648.978L183.521 649C185.677 648.702 187.85 649.059 189.832 650.041C194.807 652.51 201.163 656.516 203.217 661.581ZM168.013 659.336C167.661 659.521 167.291 659.655 166.902 659.733C165.944 659.922 164.906 659.777 163.898 659.296C162.537 658.657 161.378 657.48 160.628 655.993C159.877 654.499 159.622 652.86 159.904 651.367C160.203 649.81 161.048 648.595 162.283 647.952C164.782 646.662 168.093 648.161 169.67 651.303C170.421 652.798 170.676 654.436 170.395 655.929C170.095 657.486 169.25 658.701 168.013 659.336Z" fill="black" fill-opacity="0.5"/>
</g>
<g clip-path="url(#clip3_43_713)">
<path d="M129.865 329.606C131.76 326.37 135.389 324.993 137.958 326.537C139.227 327.309 140.042 328.65 140.252 330.327C140.456 331.941 140.066 333.675 139.166 335.213C137.534 337.998 134.626 339.405 132.206 338.761C131.816 338.658 131.434 338.494 131.073 338.282C128.513 336.732 127.968 332.848 129.865 329.606ZM146.717 347.065C145.875 348.501 144.643 349.6 143.244 350.152C142.208 350.567 141.162 350.645 140.218 350.395C139.835 350.293 139.475 350.135 139.134 349.928C137.941 349.215 137.174 347.948 136.975 346.375C136.789 344.867 137.149 343.248 137.993 341.805C139.767 338.77 143.166 337.486 145.578 338.934C146.77 339.655 147.536 340.921 147.735 342.495C147.921 344.003 147.562 345.621 146.717 347.065ZM114.291 328.599C114.269 326.816 114.787 325.116 115.761 323.815C116.771 322.463 118.141 321.702 119.625 321.662C122.619 321.597 125.091 324.597 125.14 328.349C125.187 332.109 122.795 335.212 119.806 335.286C119.387 335.291 118.975 335.243 118.584 335.14C116.165 334.496 114.334 331.83 114.291 328.599ZM137.702 358.91C137.474 362.185 135.991 364.754 133.623 365.956C132.096 366.736 130.343 366.875 128.569 366.404C127.554 366.134 126.526 365.659 125.533 364.991C123.591 363.692 121.381 362.716 118.77 362.022C116.159 361.328 113.757 361.077 111.428 361.241C108.146 361.478 105.407 360.323 103.924 358.059C102.461 355.839 102.44 352.871 103.86 349.912C106.232 344.989 112.83 341.398 117.953 339.254C120.136 338.407 122.264 338.197 124.324 338.62L124.33 338.599L124.918 338.755C124.926 338.757 124.926 338.757 124.933 338.759L125.202 338.831C125.364 338.881 125.493 338.908 125.514 338.914L125.509 338.935C127.576 339.617 129.373 340.894 130.723 342.649C134.115 347.057 138.073 353.455 137.702 358.91ZM107.052 341.398C106.654 341.408 106.263 341.366 105.88 341.264C104.936 341.014 104.066 340.425 103.371 339.55C102.429 338.376 101.901 336.809 101.878 335.143C101.857 333.469 102.345 331.884 103.251 330.667C104.201 329.399 105.492 328.68 106.883 328.646C109.693 328.587 112.012 331.391 112.055 334.908C112.076 336.582 111.588 338.167 110.682 339.384C109.732 340.652 108.441 341.371 107.052 341.398Z" fill="black" fill-opacity="0.5"/>
</g>
<path d="M286.491 110.976C287.497 107.362 290.653 105.097 293.53 105.93C294.954 106.35 296.085 107.437 296.716 109.004C297.325 110.511 297.391 112.288 296.914 114.005C296.048 117.117 293.596 119.224 291.093 119.224C290.69 119.224 290.279 119.164 289.875 119.052C287.005 118.212 285.486 114.598 286.491 110.976ZM307.241 123.521C306.793 125.126 305.883 126.505 304.672 127.398C303.777 128.065 302.786 128.41 301.81 128.41C301.413 128.41 301.024 128.35 300.643 128.238C299.307 127.855 298.242 126.828 297.648 125.358C297.083 123.948 297.017 122.291 297.464 120.679C298.404 117.29 301.362 115.175 304.063 115.955C305.399 116.345 306.463 117.372 307.058 118.842C307.623 120.252 307.689 121.909 307.241 123.521ZM271.181 114.005C270.703 112.288 270.77 110.511 271.379 109.004C272.01 107.437 273.14 106.35 274.564 105.93C277.441 105.097 280.598 107.362 281.603 110.976C282.609 114.598 281.089 118.212 278.219 119.052C277.816 119.164 277.405 119.224 277.001 119.224C274.498 119.224 272.047 117.117 271.181 114.005ZM301.553 137.288C302.169 140.513 301.391 143.377 299.41 145.147C298.132 146.294 296.474 146.879 294.639 146.879C293.589 146.879 292.473 146.684 291.343 146.294C289.134 145.537 286.748 145.162 284.047 145.162C281.346 145.162 278.961 145.537 276.751 146.294C273.639 147.366 270.696 146.954 268.685 145.147C266.703 143.377 265.925 140.513 266.542 137.288C267.577 131.919 273.038 126.753 277.441 123.364C279.335 121.984 281.339 121.234 283.438 121.114V121.092H284.047C284.055 121.092 284.055 121.092 284.062 121.092H284.341C284.51 121.099 284.642 121.092 284.664 121.092V121.114C286.836 121.241 288.899 122.014 290.653 123.364C295.057 126.753 300.518 131.919 301.553 137.288ZM267.452 128.238C267.07 128.35 266.681 128.41 266.285 128.41C265.309 128.41 264.318 128.065 263.422 127.398C262.211 126.505 261.301 125.126 260.853 123.521C260.406 121.909 260.472 120.252 261.037 118.842C261.631 117.372 262.696 116.345 264.032 115.955C266.733 115.175 269.691 117.29 270.63 120.679C271.078 122.291 271.012 123.948 270.447 125.358C269.852 126.828 268.788 127.855 267.452 128.238Z" fill="black" fill-opacity="0.5"/>
<g clip-path="url(#clip4_43_713)">
<path d="M572.668 130.869C574.533 127.457 578.223 125.934 580.897 127.475C582.218 128.246 583.087 129.621 583.344 131.359C583.593 133.032 583.235 134.846 582.349 136.467C580.743 139.404 577.793 140.94 575.295 140.331C574.892 140.233 574.496 140.073 574.12 139.861C571.455 138.314 570.801 134.288 572.668 130.869ZM590.389 148.603C589.56 150.117 588.323 151.291 586.901 151.9C585.848 152.357 584.777 152.465 583.802 152.228C583.407 152.132 583.033 151.976 582.678 151.77C581.436 151.058 580.619 149.76 580.376 148.129C580.147 146.566 580.477 144.873 581.308 143.351C583.054 140.151 586.51 138.731 589.021 140.177C590.261 140.896 591.079 142.194 591.322 143.825C591.55 145.388 591.221 147.081 590.389 148.603ZM556.662 130.212C556.595 128.359 557.085 126.577 558.052 125.201C559.056 123.769 560.443 122.944 561.965 122.865C565.035 122.723 567.646 125.78 567.788 129.681C567.928 133.589 565.55 136.876 562.485 137.028C562.056 137.043 561.631 137.004 561.228 136.906C558.73 136.298 556.785 133.57 556.662 130.212ZM581.429 161.146C581.276 164.558 579.816 167.266 577.416 168.575C575.868 169.425 574.073 169.613 572.241 169.167C571.193 168.912 570.126 168.444 569.091 167.775C567.066 166.472 564.774 165.512 562.078 164.856C559.382 164.199 556.911 163.999 554.526 164.228C551.163 164.556 548.324 163.424 546.747 161.107C545.191 158.835 545.097 155.748 546.481 152.637C548.794 147.457 555.477 143.558 560.681 141.2C562.9 140.265 565.079 139.993 567.203 140.382L567.208 140.359L567.816 140.507C567.824 140.509 567.824 140.509 567.831 140.511L568.109 140.579C568.276 140.627 568.41 140.652 568.432 140.657L568.426 140.68C570.565 141.337 572.439 142.62 573.869 144.411C577.457 148.91 581.676 155.464 581.429 161.146ZM549.547 143.702C549.139 143.723 548.737 143.69 548.341 143.593C547.367 143.356 546.46 142.766 545.725 141.873C544.729 140.676 544.149 139.06 544.085 137.327C544.022 135.588 544.483 133.928 545.384 132.639C546.327 131.297 547.635 130.516 549.061 130.446C551.943 130.314 554.392 133.172 554.522 136.829C554.584 138.569 554.123 140.229 553.223 141.518C552.279 142.86 550.972 143.64 549.547 143.702Z" fill="black" fill-opacity="0.5"/>
</g>
<g clip-path="url(#clip5_43_713)">
<path d="M1109.48 694.681C1111.55 691.392 1115.33 690.102 1117.9 691.808C1119.18 692.66 1119.96 694.086 1120.11 695.837C1120.26 697.522 1119.79 699.31 1118.81 700.873C1117.03 703.705 1113.99 705.053 1111.53 704.29C1111.14 704.167 1110.75 703.981 1110.39 703.746C1107.82 702.036 1107.41 697.977 1109.48 694.681ZM1126.1 713.488C1125.18 714.948 1123.87 716.043 1122.42 716.561C1121.34 716.952 1120.26 716.993 1119.31 716.695C1118.92 716.574 1118.55 716.396 1118.21 716.168C1117.02 715.38 1116.28 714.033 1116.13 712.39C1116 710.815 1116.43 709.147 1117.35 707.68C1119.29 704.595 1122.83 703.393 1125.24 704.993C1126.44 705.788 1127.18 707.134 1127.32 708.778C1127.45 710.352 1127.02 712.021 1126.1 713.488ZM1093.55 693.025C1093.59 691.172 1094.19 689.424 1095.24 688.11C1096.33 686.744 1097.76 686.007 1099.29 686.024C1102.36 686.073 1104.78 689.288 1104.69 693.19C1104.59 697.1 1102.02 700.232 1098.95 700.192C1098.52 700.181 1098.1 700.115 1097.7 699.992C1095.24 699.229 1093.47 696.385 1093.55 693.025ZM1116.4 725.449C1116.04 728.844 1114.42 731.456 1111.94 732.612C1110.35 733.364 1108.54 733.44 1106.74 732.88C1105.71 732.56 1104.68 732.026 1103.68 731.293C1101.74 729.866 1099.51 728.766 1096.86 727.942C1094.21 727.118 1091.75 726.764 1089.36 726.843C1085.98 726.961 1083.22 725.653 1081.78 723.242C1080.37 720.877 1080.46 717.791 1082.03 714.771C1084.65 709.746 1091.56 706.272 1096.9 704.244C1099.17 703.449 1101.36 703.314 1103.45 703.835L1103.46 703.812L1104.06 703.998C1104.07 704 1104.07 704 1104.07 704.003L1104.35 704.088C1104.51 704.147 1104.64 704.179 1104.66 704.186L1104.66 704.208C1106.75 704.998 1108.55 706.395 1109.86 708.273C1113.17 712.987 1116.99 719.792 1116.4 725.449ZM1085.63 706.046C1085.22 706.041 1084.82 705.982 1084.43 705.861C1083.48 705.564 1082.61 704.918 1081.93 703.981C1081.01 702.724 1080.52 701.074 1080.57 699.341C1080.61 697.601 1081.17 695.973 1082.15 694.743C1083.17 693.462 1084.52 692.765 1085.95 692.784C1088.83 692.832 1091.1 695.838 1091.01 699.496C1090.97 701.236 1090.41 702.865 1089.43 704.095C1088.41 705.375 1087.06 706.073 1085.63 706.046Z" fill="black" fill-opacity="0.5"/>
</g>
<g clip-path="url(#clip6_43_713)">
<path d="M404.935 538.762C405.458 535.047 408.29 532.386 411.252 532.832C412.718 533.061 413.981 533.989 414.812 535.46C415.614 536.874 415.912 538.627 415.664 540.392C415.213 543.591 413.058 546.003 410.577 546.333C410.177 546.386 409.762 546.38 409.347 546.322C406.392 545.868 404.412 542.485 404.935 538.762ZM427.147 548.464C426.914 550.114 426.192 551.602 425.108 552.646C424.308 553.426 423.371 553.898 422.403 554.027C422.01 554.079 421.617 554.071 421.224 554.009C419.849 553.806 418.66 552.928 417.878 551.55C417.133 550.227 416.851 548.592 417.083 546.935C417.571 543.452 420.226 540.966 423.006 541.383C424.381 541.593 425.571 542.471 426.353 543.85C427.098 545.173 427.38 546.807 427.147 548.464ZM390.153 543.782C389.455 542.143 389.288 540.372 389.695 538.798C390.115 537.161 391.093 535.935 392.45 535.331C395.193 534.126 398.619 535.956 400.089 539.406C401.56 542.864 400.527 546.647 397.792 547.858C397.406 548.022 397.007 548.136 396.607 548.189C394.125 548.519 391.419 546.753 390.153 543.782ZM423.311 562.862C424.345 565.977 423.948 568.919 422.216 570.935C421.1 572.24 419.532 573.038 417.713 573.28C416.672 573.419 415.541 573.372 414.369 573.135C412.08 572.675 409.666 572.618 406.988 572.973C404.311 573.329 401.995 574.015 399.904 575.057C396.959 576.53 393.988 576.509 391.757 574.983C389.561 573.489 388.415 570.752 388.604 567.475C388.926 562.016 393.663 556.175 397.585 552.234C399.282 550.617 401.17 549.61 403.235 549.214L403.232 549.192L403.836 549.112C403.844 549.111 403.844 549.111 403.851 549.11L404.127 549.073C404.296 549.058 404.426 549.033 404.448 549.031L404.451 549.053C406.621 548.893 408.767 549.387 410.682 550.494C415.492 553.274 421.582 557.676 423.311 562.862ZM388.321 558.382C387.957 558.544 387.579 558.655 387.186 558.707C386.219 558.836 385.191 558.624 384.216 558.081C382.899 557.356 381.816 556.108 381.162 554.576C380.507 553.037 380.355 551.385 380.731 549.913C381.128 548.378 382.048 547.219 383.321 546.657C385.897 545.528 389.106 547.235 390.481 550.471C391.136 552.01 391.288 553.661 390.912 555.133C390.515 556.669 389.595 557.827 388.321 558.382Z" fill="black" fill-opacity="0.5"/>
</g>
<path d="M383.32 297.092C384.325 293.477 387.482 291.213 390.359 292.045C391.783 292.465 392.913 293.552 393.544 295.12C394.153 296.627 394.219 298.404 393.742 300.121C392.876 303.233 390.425 305.34 387.922 305.34C387.518 305.34 387.107 305.28 386.704 305.167C383.834 304.328 382.314 300.713 383.32 297.092ZM404.07 309.637C403.622 311.241 402.712 312.621 401.501 313.513C400.605 314.181 399.614 314.526 398.638 314.526C398.242 314.526 397.853 314.466 397.471 314.353C396.135 313.971 395.071 312.943 394.476 311.474C393.911 310.064 393.845 308.407 394.293 306.795C395.232 303.405 398.19 301.291 400.891 302.071C402.227 302.461 403.291 303.488 403.886 304.958C404.451 306.367 404.517 308.024 404.07 309.637ZM368.009 300.121C367.532 298.404 367.598 296.627 368.207 295.12C368.838 293.552 369.969 292.465 371.393 292.045C374.27 291.213 377.426 293.477 378.432 297.092C379.437 300.713 377.918 304.328 375.048 305.167C374.644 305.28 374.233 305.34 373.829 305.34C371.327 305.34 368.875 303.233 368.009 300.121ZM398.381 323.404C398.998 326.628 398.22 329.493 396.238 331.262C394.961 332.409 393.302 332.994 391.467 332.994C390.417 332.994 389.302 332.799 388.171 332.409C385.962 331.652 383.577 331.277 380.876 331.277C378.175 331.277 375.789 331.652 373.58 332.409C370.468 333.482 367.525 333.069 365.513 331.262C363.532 329.493 362.754 326.628 363.37 323.404C364.405 318.035 369.866 312.868 374.27 309.479C376.164 308.099 378.167 307.35 380.266 307.23L380.266 307.207L380.876 307.207C380.883 307.207 380.883 307.207 380.89 307.207L381.169 307.207C381.338 307.215 381.47 307.207 381.492 307.207L381.492 307.23C383.665 307.357 385.727 308.129 387.482 309.479C391.885 312.868 397.346 318.035 398.381 323.404ZM364.28 314.353C363.899 314.466 363.51 314.526 363.113 314.526C362.137 314.526 361.146 314.181 360.251 313.513C359.04 312.621 358.13 311.241 357.682 309.637C357.234 308.024 357.3 306.367 357.865 304.958C358.46 303.488 359.524 302.461 360.86 302.071C363.561 301.291 366.519 303.405 367.459 306.795C367.906 308.407 367.84 310.064 367.275 311.474C366.68 312.943 365.616 313.971 364.28 314.353Z" fill="black" fill-opacity="0.5"/>
<path d="M606.057 714.917C607.062 711.302 610.218 709.038 613.095 709.87C614.519 710.29 615.65 711.377 616.281 712.944C616.89 714.452 616.956 716.229 616.479 717.946C615.613 721.058 613.161 723.165 610.659 723.165C610.255 723.165 609.844 723.105 609.44 722.992C606.57 722.153 605.051 718.538 606.057 714.917ZM626.806 727.461C626.358 729.066 625.448 730.446 624.237 731.338C623.342 732.006 622.351 732.35 621.375 732.35C620.978 732.35 620.589 732.29 620.208 732.178C618.872 731.796 617.808 730.768 617.213 729.299C616.648 727.889 616.582 726.232 617.03 724.62C617.969 721.23 620.927 719.116 623.628 719.895C624.964 720.285 626.028 721.313 626.623 722.782C627.188 724.192 627.254 725.849 626.806 727.461ZM590.746 717.946C590.269 716.229 590.335 714.452 590.944 712.944C591.575 711.377 592.705 710.29 594.129 709.87C597.007 709.038 600.163 711.302 601.168 714.917C602.174 718.538 600.654 722.153 597.785 722.992C597.381 723.105 596.97 723.165 596.566 723.165C594.063 723.165 591.612 721.058 590.746 717.946ZM621.118 741.229C621.734 744.453 620.956 747.317 618.975 749.087C617.697 750.234 616.039 750.819 614.204 750.819C613.154 750.819 612.038 750.624 610.908 750.234C608.699 749.477 606.313 749.102 603.612 749.102C600.911 749.102 598.526 749.477 596.317 750.234C593.205 751.307 590.261 750.894 588.25 749.087C586.268 747.317 585.49 744.453 586.107 741.229C587.142 735.86 592.603 730.693 597.007 727.304C598.9 725.924 600.904 725.174 603.003 725.054V725.032H603.612C603.62 725.032 603.62 725.032 603.627 725.032H603.906C604.075 725.039 604.207 725.032 604.229 725.032V725.054C606.401 725.182 608.464 725.954 610.218 727.304C614.622 730.693 620.083 735.86 621.118 741.229ZM587.017 732.178C586.635 732.29 586.246 732.35 585.85 732.35C584.874 732.35 583.883 732.006 582.987 731.338C581.776 730.446 580.866 729.066 580.419 727.461C579.971 725.849 580.037 724.192 580.602 722.782C581.197 721.313 582.261 720.285 583.597 719.895C586.298 719.116 589.256 721.23 590.195 724.62C590.643 726.232 590.577 727.889 590.012 729.299C589.417 730.768 588.353 731.796 587.017 732.178Z" fill="black" fill-opacity="0.5"/>
<path d="M663.932 429.425C664.938 425.811 668.094 423.547 670.971 424.379C672.395 424.799 673.525 425.886 674.157 427.453C674.766 428.96 674.832 430.738 674.355 432.455C673.489 435.567 671.037 437.674 668.534 437.674C668.131 437.674 667.72 437.614 667.316 437.501C664.446 436.661 662.927 433.047 663.932 429.425ZM684.682 441.97C684.234 443.575 683.324 444.955 682.113 445.847C681.217 446.514 680.227 446.859 679.25 446.859C678.854 446.859 678.465 446.799 678.083 446.687C676.748 446.304 675.683 445.277 675.089 443.807C674.524 442.398 674.457 440.741 674.905 439.128C675.845 435.739 678.803 433.625 681.504 434.404C682.84 434.794 683.904 435.822 684.498 437.291C685.064 438.701 685.13 440.358 684.682 441.97ZM648.621 432.455C648.144 430.738 648.21 428.96 648.82 427.453C649.451 425.886 650.581 424.799 652.005 424.379C654.882 423.547 658.038 425.811 659.044 429.425C660.049 433.047 658.53 436.661 655.66 437.501C655.257 437.614 654.846 437.674 654.442 437.674C651.939 437.674 649.487 435.567 648.621 432.455ZM678.993 455.738C679.61 458.962 678.832 461.826 676.85 463.596C675.573 464.743 673.914 465.328 672.079 465.328C671.03 465.328 669.914 465.133 668.784 464.743C666.575 463.986 664.189 463.611 661.488 463.611C658.787 463.611 656.402 463.986 654.192 464.743C651.08 465.815 648.137 465.403 646.126 463.596C644.144 461.826 643.366 458.962 643.983 455.738C645.017 450.369 650.478 445.202 654.882 441.813C656.776 440.433 658.78 439.683 660.879 439.563V439.541H661.488C661.495 439.541 661.495 439.541 661.503 439.541H661.782C661.95 439.548 662.083 439.541 662.105 439.541V439.563C664.277 439.691 666.34 440.463 668.094 441.813C672.498 445.202 677.959 450.369 678.993 455.738ZM644.893 446.687C644.511 446.799 644.122 446.859 643.726 446.859C642.749 446.859 641.759 446.514 640.863 445.847C639.652 444.955 638.742 443.575 638.294 441.97C637.846 440.358 637.913 438.701 638.478 437.291C639.072 435.822 640.137 434.794 641.472 434.404C644.173 433.625 647.131 435.739 648.071 439.128C648.519 440.741 648.453 442.398 647.887 443.807C647.293 445.277 646.229 446.304 644.893 446.687Z" fill="black" fill-opacity="0.5"/>
<g clip-path="url(#clip7_43_713)">
<path d="M827.911 521.427C828.263 517.541 831.035 514.633 834.094 514.947C835.608 515.111 836.949 516.012 837.874 517.498C838.766 518.927 839.158 520.733 838.991 522.579C838.687 525.926 836.598 528.54 834.07 529.008C833.662 529.084 833.236 529.099 832.808 529.059C829.756 528.736 827.559 525.322 827.911 521.427ZM851.164 530.387C851.006 532.113 850.34 533.695 849.281 534.834C848.499 535.685 847.561 536.223 846.576 536.405C846.175 536.479 845.772 536.491 845.366 536.447C843.946 536.305 842.683 535.453 841.814 534.06C840.984 532.723 840.614 531.04 840.77 529.306C841.098 525.662 843.697 522.945 846.568 523.238C847.988 523.388 849.251 524.24 850.121 525.633C850.95 526.97 851.321 528.653 851.164 530.387ZM813.004 527.389C812.208 525.721 811.949 523.89 812.288 522.234C812.638 520.512 813.58 519.188 814.941 518.492C817.694 517.103 821.296 518.83 822.974 522.341C824.654 525.86 823.782 529.842 821.038 531.238C820.651 531.429 820.247 531.567 819.839 531.642C817.311 532.11 814.45 530.412 813.004 527.389ZM847.944 545.539C849.158 548.723 848.897 551.8 847.22 553.981C846.141 555.394 844.573 556.303 842.72 556.646C841.66 556.842 840.498 556.851 839.285 556.663C836.915 556.301 834.437 556.363 831.71 556.868C828.982 557.373 826.642 558.203 824.55 559.391C821.603 561.07 818.556 561.198 816.193 559.724C813.868 558.284 812.557 555.498 812.588 552.083C812.649 546.395 817.217 540.087 821.042 535.796C822.702 534.03 824.588 532.888 826.686 532.373L826.682 532.35L827.297 532.236C827.304 532.235 827.304 532.235 827.312 532.233L827.593 532.181C827.765 532.157 827.897 532.125 827.919 532.121L827.924 532.144C830.141 531.868 832.365 532.273 834.384 533.326C839.453 535.972 845.914 540.238 847.944 545.539ZM811.848 542.651C811.483 542.837 811.102 542.971 810.701 543.046C809.716 543.228 808.652 543.06 807.625 542.545C806.238 541.858 805.066 540.616 804.32 539.058C803.572 537.491 803.335 535.783 803.648 534.235C803.979 532.62 804.865 531.37 806.142 530.721C808.727 529.418 812.102 531.029 813.672 534.322C814.42 535.888 814.657 537.596 814.344 539.144C814.014 540.76 813.127 542.01 811.848 542.651Z" fill="black" fill-opacity="0.5"/>
</g>
<g clip-path="url(#clip8_43_713)">
<path d="M1296.87 306.545C1297.22 302.659 1299.99 299.751 1303.05 300.065C1304.56 300.229 1305.9 301.13 1306.83 302.616C1307.72 304.045 1308.11 305.851 1307.95 307.697C1307.64 311.044 1305.55 313.658 1303.03 314.126C1302.62 314.202 1302.19 314.217 1301.76 314.177C1298.71 313.854 1296.51 310.44 1296.87 306.545ZM1320.12 315.505C1319.96 317.231 1319.3 318.813 1318.24 319.952C1317.45 320.803 1316.52 321.341 1315.53 321.523C1315.13 321.597 1314.73 321.609 1314.32 321.565C1312.9 321.423 1311.64 320.571 1310.77 319.178C1309.94 317.841 1309.57 316.158 1309.73 314.424C1310.05 310.78 1312.65 308.063 1315.52 308.356C1316.94 308.506 1318.21 309.358 1319.08 310.751C1319.91 312.088 1320.28 313.771 1320.12 315.505ZM1281.96 312.507C1281.16 310.839 1280.9 309.008 1281.24 307.352C1281.59 305.63 1282.53 304.306 1283.9 303.61C1286.65 302.221 1290.25 303.948 1291.93 307.459C1293.61 310.978 1292.74 314.96 1289.99 316.356C1289.61 316.547 1289.2 316.685 1288.79 316.76C1286.27 317.228 1283.4 315.53 1281.96 312.507ZM1316.9 330.657C1318.11 333.841 1317.85 336.918 1316.18 339.099C1315.1 340.512 1313.53 341.421 1311.68 341.764C1310.62 341.96 1309.45 341.969 1308.24 341.781C1305.87 341.419 1303.39 341.481 1300.66 341.986C1297.94 342.491 1295.6 343.321 1293.5 344.509C1290.56 346.188 1287.51 346.316 1285.15 344.842C1282.82 343.402 1281.51 340.616 1281.54 337.201C1281.6 331.513 1286.17 325.205 1290 320.914C1291.66 319.148 1293.54 318.006 1295.64 317.491L1295.64 317.468L1296.25 317.354C1296.26 317.353 1296.26 317.353 1296.27 317.351L1296.55 317.299C1296.72 317.275 1296.85 317.243 1296.87 317.239L1296.88 317.262C1299.1 316.986 1301.32 317.391 1303.34 318.444C1308.41 321.09 1314.87 325.356 1316.9 330.657ZM1280.8 327.769C1280.44 327.955 1280.06 328.089 1279.66 328.164C1278.67 328.346 1277.61 328.178 1276.58 327.663C1275.19 326.976 1274.02 325.734 1273.28 324.176C1272.53 322.609 1272.29 320.901 1272.6 319.353C1272.93 317.738 1273.82 316.488 1275.1 315.839C1277.68 314.536 1281.06 316.147 1282.63 319.44C1283.37 321.006 1283.61 322.714 1283.3 324.262C1282.97 325.878 1282.08 327.128 1280.8 327.769Z" fill="black" fill-opacity="0.5"/>
</g>
<g clip-path="url(#clip9_43_713)">
<path d="M1301.58 598.78C1301.93 594.894 1304.71 591.986 1307.76 592.3C1309.28 592.464 1310.62 593.365 1311.54 594.851C1312.44 596.28 1312.83 598.086 1312.66 599.932C1312.36 603.279 1310.27 605.893 1307.74 606.361C1307.33 606.437 1306.91 606.452 1306.48 606.412C1303.43 606.089 1301.23 602.675 1301.58 598.78ZM1324.83 607.74C1324.68 609.466 1324.01 611.048 1322.95 612.187C1322.17 613.038 1321.23 613.576 1320.25 613.758C1319.85 613.832 1319.44 613.844 1319.04 613.8C1317.62 613.658 1316.35 612.806 1315.48 611.413C1314.65 610.076 1314.28 608.392 1314.44 606.659C1314.77 603.015 1317.37 600.298 1320.24 600.591C1321.66 600.74 1322.92 601.593 1323.79 602.986C1324.62 604.323 1324.99 606.006 1324.83 607.74ZM1286.67 604.742C1285.88 603.074 1285.62 601.243 1285.96 599.587C1286.31 597.865 1287.25 596.541 1288.61 595.845C1291.36 594.456 1294.97 596.183 1296.64 599.694C1298.32 603.212 1297.45 607.195 1294.71 608.591C1294.32 608.782 1293.92 608.92 1293.51 608.995C1290.98 609.463 1288.12 607.765 1286.67 604.742ZM1321.61 622.892C1322.83 626.076 1322.57 629.153 1320.89 631.334C1319.81 632.747 1318.24 633.656 1316.39 633.999C1315.33 634.195 1314.17 634.204 1312.95 634.016C1310.58 633.654 1308.11 633.716 1305.38 634.221C1302.65 634.726 1300.31 635.556 1298.22 636.744C1295.27 638.423 1292.23 638.551 1289.86 637.077C1287.54 635.637 1286.23 632.851 1286.26 629.436C1286.32 623.748 1290.89 617.44 1294.71 613.149C1296.37 611.383 1298.26 610.241 1300.36 609.726L1300.35 609.703L1300.97 609.589C1300.97 609.588 1300.97 609.588 1300.98 609.586L1301.26 609.534C1301.44 609.51 1301.57 609.478 1301.59 609.474L1301.59 609.497C1303.81 609.221 1306.04 609.626 1308.05 610.679C1313.12 613.325 1319.58 617.591 1321.61 622.892ZM1285.52 620.004C1285.15 620.19 1284.77 620.324 1284.37 620.398C1283.39 620.581 1282.32 620.413 1281.29 619.898C1279.91 619.211 1278.74 617.969 1277.99 616.41C1277.24 614.844 1277.01 613.136 1277.32 611.588C1277.65 609.973 1278.53 608.722 1279.81 608.074C1282.4 606.771 1285.77 608.382 1287.34 611.675C1288.09 613.241 1288.33 614.949 1288.01 616.497C1287.68 618.113 1286.8 619.363 1285.52 620.004Z" fill="black" fill-opacity="0.5"/>
</g>
<g clip-path="url(#clip10_43_713)">
<path d="M31.816 683.939C35.019 681.985 38.8737 682.483 40.4101 685.053C41.165 686.331 41.2496 687.897 40.6414 689.472C40.058 690.988 38.8931 692.332 37.3718 693.261C34.6137 694.943 31.382 694.811 29.5511 693.104C29.2558 692.828 28.9961 692.504 28.7776 692.147C27.2517 689.576 28.6078 685.899 31.816 683.939ZM38.4296 707.256C37.0066 708.122 35.3989 708.51 33.9038 708.336C32.7931 708.212 31.8328 707.789 31.1188 707.123C30.8288 706.852 30.5852 706.543 30.3828 706.201C29.6668 705.01 29.5896 703.534 30.1581 702.055C30.7071 700.64 31.7901 699.384 33.2183 698.512C36.2194 696.676 39.8268 697.149 41.2702 699.561C41.9811 700.757 42.0583 702.233 41.4898 703.712C40.9408 705.128 39.8578 706.383 38.4296 707.256ZM18.548 675.71C19.3714 674.13 20.633 672.877 22.1076 672.192C23.6392 671.477 25.2083 671.454 26.5366 672.118C29.2095 673.472 29.9722 677.279 28.2402 680.605C26.5032 683.937 22.9243 685.541 20.2516 684.197C19.8795 684.004 19.5379 683.768 19.2426 683.492C17.4118 681.785 17.0571 678.574 18.548 675.71ZM24.8696 713.433C23.1193 716.209 20.5946 717.771 17.9368 717.713C16.2194 717.68 14.6067 716.976 13.2644 715.724C12.4967 715.008 11.8137 714.105 11.253 713.049C10.154 710.989 8.66505 709.088 6.68926 707.246C4.71346 705.404 2.71257 704.051 0.579448 703.097C-2.42907 701.758 -4.30048 699.45 -4.53784 696.758C-4.77933 694.113 -3.39287 691.49 -0.740581 689.555C3.68186 686.339 11.2036 686.289 16.7389 686.817C19.0661 687.1 21.0437 687.919 22.6612 689.263L22.6765 689.247L23.1222 689.662C23.1275 689.667 23.1275 689.667 23.1329 689.672L23.3369 689.862C23.4553 689.983 23.5571 690.068 23.5732 690.083L23.5578 690.099C25.06 691.674 26.0414 693.645 26.4031 695.827C27.3106 701.307 27.778 708.805 24.8696 713.433ZM6.10416 683.564C5.74818 683.386 5.42267 683.165 5.13274 682.894C4.41866 682.228 3.92934 681.301 3.72993 680.202C3.45324 678.725 3.72943 677.096 4.49745 675.618C5.27059 674.135 6.45027 672.97 7.82611 672.325C9.26438 671.657 10.7442 671.632 11.9876 672.259C14.4958 673.531 15.2159 677.093 13.5892 680.21C12.816 681.693 11.6364 682.859 10.2605 683.503C8.82225 684.171 7.3424 684.196 6.10416 683.564Z" fill="black" fill-opacity="0.5"/>
</g>
<path d="M19.2374 166.709C21.1327 163.474 24.7619 162.096 27.3304 163.64C28.5996 164.412 29.4144 165.754 29.6242 167.431C29.8281 169.044 29.438 170.779 28.5382 172.316C26.9061 175.102 23.9982 176.508 21.5789 175.865C21.1887 175.761 20.8067 175.598 20.4452 175.385C17.8857 173.836 17.3403 169.952 19.2374 166.709ZM36.0899 184.168C35.2472 185.604 34.015 186.704 32.6164 187.255C31.5804 187.67 30.5344 187.749 29.5908 187.498C29.2077 187.396 28.847 187.238 28.5068 187.031C27.3133 186.318 26.5469 185.052 26.3477 183.478C26.1615 181.971 26.5209 180.352 27.3656 178.908C29.1395 175.874 32.5388 174.59 34.9505 176.038C36.1422 176.758 36.9085 178.025 37.1077 179.598C37.2939 181.106 36.9345 182.725 36.0899 184.168ZM3.66385 165.702C3.64133 163.92 4.15915 162.219 5.13302 160.919C6.14351 159.566 7.51385 158.806 8.9975 158.766C11.9913 158.701 14.4636 161.701 14.5123 165.453C14.5591 169.212 12.1673 172.315 9.17866 172.39C8.75971 172.394 8.34708 172.347 7.95687 172.243C5.53754 171.6 3.70613 168.933 3.66385 165.702ZM27.0746 196.014C26.8469 199.289 25.3632 201.858 22.9955 203.059C21.468 203.84 19.7152 203.979 17.9415 203.507C16.9269 203.238 15.8983 202.762 14.9053 202.095C12.9632 200.795 10.7532 199.82 8.14231 199.125C5.53142 198.431 3.12984 198.181 0.80085 198.345C-2.48125 198.581 -5.22092 197.426 -6.70326 195.163C-8.16681 192.943 -8.18715 189.974 -6.76755 187.016C-4.39571 182.092 2.20256 178.502 7.32522 176.357C9.50813 175.51 11.6365 175.3 13.6963 175.724L13.7021 175.702L14.2909 175.859C14.298 175.861 14.298 175.861 14.3051 175.863L14.5747 175.934C14.736 175.985 14.8656 176.012 14.8869 176.017L14.8811 176.039C16.9486 176.721 18.745 177.997 20.0959 179.753C23.4869 184.161 27.4457 190.558 27.0746 196.014ZM-3.57584 178.501C-3.9735 178.512 -4.36484 178.47 -4.74796 178.368C-5.69157 178.117 -6.56126 177.529 -7.25635 176.654C-8.19905 175.48 -8.72636 173.912 -8.74923 172.246C-8.77019 170.573 -8.28302 168.988 -7.37662 167.771C-6.42651 166.503 -5.13535 165.783 -3.74449 165.75C-0.934401 165.69 1.38464 168.494 1.42699 172.012C1.44795 173.685 0.960779 175.27 0.0543747 176.488C-0.895733 177.755 -2.1869 178.475 -3.57584 178.501Z" fill="black" fill-opacity="0.5"/>
<path d="M152.368 80.3305L129.114 105.431C127.476 103.906 125.343 103.147 123.186 103.32C121.029 103.492 119.023 104.583 117.611 106.351C116.198 108.12 115.495 110.422 115.655 112.75C115.814 115.079 116.825 117.244 118.463 118.768C119.214 119.575 120.11 120.207 121.096 120.624C122.083 121.042 123.138 121.236 124.196 121.195C124.155 122.336 124.332 123.474 124.714 124.539C125.097 125.603 125.677 126.571 126.42 127.384C127.833 129.153 129.838 130.243 131.995 130.416C134.153 130.588 136.285 129.829 137.924 128.304C139.562 126.78 140.572 124.615 140.732 122.286C140.892 119.958 140.189 117.656 138.776 115.887L162.03 90.7868C163.668 92.3114 165.801 93.0709 167.958 92.8983C170.115 92.7257 172.121 91.6352 173.533 89.8666C174.946 88.0979 175.649 85.7961 175.489 83.4675C175.329 81.1389 174.319 78.9742 172.681 77.4497C171.93 76.6429 171.034 76.0111 170.048 75.5935C169.061 75.176 168.006 74.9816 166.947 75.0223C166.993 73.8516 166.81 72.6837 166.409 71.5945C166.009 70.5054 165.401 69.5193 164.625 68.7005C163.212 66.9319 161.207 65.8413 159.05 65.6688C156.892 65.4962 154.76 66.2557 153.121 67.7802C151.483 69.3048 150.473 71.4695 150.313 73.7981C150.153 76.1267 150.856 78.4285 152.269 80.1971L152.368 80.3305Z" stroke="#EF2C2C" stroke-opacity="0.35" stroke-width="4" stroke-linejoin="round"/>
<path d="M313.36 472.59L303.686 505.544C301.545 504.921 299.302 505.205 297.449 506.335C295.596 507.464 294.286 509.345 293.806 511.565C293.327 513.785 293.718 516.161 294.892 518.171C296.067 520.182 297.93 521.661 300.071 522.284C301.099 522.667 302.181 522.827 303.248 522.754C304.315 522.682 305.345 522.38 306.273 521.865C306.742 522.904 307.404 523.841 308.218 524.621C309.032 525.4 309.98 526.003 311.005 526.394C313.051 527.338 315.328 527.407 317.334 526.587C319.34 525.766 320.91 524.124 321.7 522.02C322.49 519.916 322.434 517.524 321.545 515.369C320.656 513.214 319.007 511.474 316.96 510.53L326.635 477.576C328.775 478.199 331.019 477.915 332.872 476.786C334.725 475.657 336.035 473.776 336.514 471.556C336.994 469.336 336.603 466.96 335.428 464.949C334.254 462.939 332.391 461.46 330.25 460.836C329.221 460.454 328.14 460.294 327.073 460.366C326.006 460.438 324.976 460.741 324.047 461.256C323.569 460.188 322.888 459.227 322.047 458.433C321.207 457.64 320.226 457.033 319.169 456.652C317.122 455.708 314.845 455.639 312.839 456.459C310.834 457.28 309.263 458.922 308.473 461.026C307.684 463.13 307.739 465.522 308.628 467.677C309.517 469.832 311.166 471.572 313.213 472.516L313.36 472.59Z" stroke="#EF2C2C" stroke-opacity="0.35" stroke-width="4" stroke-linejoin="round"/>
<path d="M37.9403 450.499L16.833 423.405C18.5887 422.031 19.6678 420.044 19.8329 417.88C19.9979 415.717 19.2354 413.555 17.713 411.869C16.1907 410.184 14.0332 409.114 11.7152 408.894C9.39719 408.674 7.10858 409.323 5.35281 410.697C4.44171 411.309 3.68039 412.094 3.11605 413.002C2.55172 413.911 2.19641 414.924 2.07213 415.978C0.955025 415.752 -0.19281 415.742 -1.30042 415.948C-2.40803 416.154 -3.45187 416.571 -4.36744 417.175C-6.32845 418.286 -7.71381 420.094 -8.21876 422.201C-8.72371 424.309 -8.30689 426.543 -7.05999 428.412C-5.81309 430.281 -3.83826 431.633 -1.56992 432.169C0.698411 432.706 3.07443 432.383 5.03544 431.272L26.1428 458.365C24.387 459.739 23.3079 461.727 23.1429 463.89C22.9778 466.054 23.7404 468.216 25.2627 469.901C26.7851 471.586 28.9426 472.657 31.2606 472.876C33.5786 473.096 35.8672 472.448 37.6229 471.073C38.534 470.461 39.2954 469.677 39.8597 468.768C40.424 467.86 40.7793 466.847 40.9036 465.792C42.0494 466.027 43.228 466.036 44.3628 465.816C45.4975 465.597 46.563 465.155 47.4899 464.519C49.4509 463.409 50.8363 461.601 51.3412 459.493C51.8462 457.386 51.4293 455.152 50.1824 453.282C48.9355 451.413 46.9607 450.061 44.6924 449.525C42.424 448.989 40.048 449.311 38.087 450.422L37.9403 450.499Z" stroke="#EF2C2C" stroke-opacity="0.35" stroke-width="4" stroke-linejoin="round"/>
<path d="M128.735 754.932L105.482 780.032C103.843 778.508 101.711 777.748 99.5535 777.921C97.3962 778.093 95.3908 779.184 93.9785 780.953C92.5661 782.721 91.8624 785.023 92.0223 787.352C92.1822 789.68 93.1925 791.845 94.831 793.369C95.5817 794.176 96.4779 794.808 97.4641 795.226C98.4503 795.643 99.5054 795.838 100.564 795.797C100.523 796.938 100.699 798.075 101.082 799.14C101.464 800.204 102.045 801.173 102.788 801.985C104.201 803.754 106.206 804.844 108.363 805.017C110.52 805.19 112.653 804.43 114.291 802.905C115.93 801.381 116.94 799.216 117.1 796.888C117.26 794.559 116.556 792.257 115.144 790.489L138.398 765.388C140.036 766.913 142.169 767.672 144.326 767.5C146.483 767.327 148.489 766.236 149.901 764.468C151.313 762.699 152.017 760.397 151.857 758.069C151.697 755.74 150.687 753.575 149.048 752.051C148.298 751.244 147.401 750.612 146.415 750.195C145.429 749.777 144.374 749.583 143.315 749.624C143.361 748.453 143.177 747.285 142.777 746.196C142.377 745.107 141.769 744.121 140.992 743.302C139.58 741.533 137.575 740.443 135.417 740.27C133.26 740.097 131.128 740.857 129.489 742.381C127.851 743.906 126.84 746.071 126.68 748.399C126.521 750.728 127.224 753.03 128.637 754.798L128.735 754.932Z" stroke="#EF2C2C" stroke-opacity="0.35" stroke-width="4" stroke-linejoin="round"/>
<path d="M954.956 50.0423L931.702 75.1428C930.064 73.6182 927.931 72.8587 925.774 73.0313C923.617 73.2039 921.611 74.2944 920.199 76.0631C918.787 77.8317 918.083 80.1335 918.243 82.4621C918.403 84.7907 919.413 86.9554 921.052 88.4799C921.802 89.2867 922.699 89.9185 923.685 90.3361C924.671 90.7536 925.726 90.948 926.785 90.9073C926.744 92.0481 926.92 93.1859 927.303 94.2503C927.685 95.3148 928.266 96.2832 929.009 97.0957C930.421 98.8643 932.427 99.9549 934.584 100.127C936.741 100.3 938.874 99.5405 940.512 98.016C942.151 96.4914 943.161 94.3268 943.321 91.9981C943.481 89.6695 942.777 87.3677 941.365 85.5991L964.618 60.4986C966.257 62.0232 968.389 62.7827 970.546 62.6101C972.704 62.4375 974.709 61.347 976.122 59.5783C977.534 57.8097 978.238 55.5079 978.078 53.1793C977.918 50.8507 976.907 48.686 975.269 47.1615C974.518 46.3546 973.622 45.7229 972.636 45.3053C971.65 44.8878 970.595 44.6934 969.536 44.7341C969.581 43.5634 969.398 42.3955 968.998 41.3063C968.598 40.2171 967.989 39.2311 967.213 38.4123C965.801 36.6437 963.795 35.5531 961.638 35.3805C959.481 35.208 957.348 35.9675 955.71 37.492C954.071 39.0166 953.061 41.1813 952.901 43.5099C952.741 45.8385 953.445 48.1403 954.857 49.9089L954.956 50.0423Z" stroke="#EF2C2C" stroke-opacity="0.35" stroke-width="4" stroke-linejoin="round"/>
<path d="M1081.11 338.352L1104.26 363.553C1102.64 365.095 1101.73 367.189 1101.75 369.374C1101.77 371.56 1102.7 373.657 1104.35 375.205C1106 376.753 1108.22 377.624 1110.53 377.628C1112.85 377.632 1115.06 376.768 1116.68 375.226C1117.53 374.527 1118.22 373.669 1118.7 372.705C1119.18 371.741 1119.45 370.692 1119.48 369.623C1120.61 369.745 1121.74 369.648 1122.82 369.339C1123.9 369.029 1124.9 368.512 1125.75 367.822C1127.6 366.524 1128.82 364.582 1129.14 362.421C1129.47 360.26 1128.87 358.059 1127.48 356.3C1126.09 354.542 1124.02 353.371 1121.73 353.045C1119.44 352.719 1117.12 353.264 1115.27 354.562L1092.12 329.361C1093.75 327.819 1094.65 325.725 1094.63 323.539C1094.61 321.354 1093.68 319.257 1092.03 317.709C1090.38 316.161 1088.16 315.289 1085.85 315.285C1083.54 315.281 1081.33 316.146 1079.7 317.688C1078.85 318.387 1078.17 319.245 1077.68 320.209C1077.2 321.172 1076.93 322.221 1076.9 323.291C1075.75 323.162 1074.58 323.264 1073.48 323.59C1072.37 323.916 1071.35 324.458 1070.49 325.182C1068.64 326.48 1067.42 328.422 1067.1 330.583C1066.78 332.744 1067.38 334.945 1068.77 336.704C1070.16 338.462 1072.22 339.633 1074.51 339.959C1076.8 340.285 1079.12 339.74 1080.97 338.442L1081.11 338.352Z" stroke="#EF2C2C" stroke-opacity="0.35" stroke-width="4" stroke-linejoin="round"/>
<path d="M580.499 379.491L546.472 378.594C546.513 376.345 545.66 374.23 544.1 372.716C542.54 371.201 540.401 370.411 538.153 370.518C535.906 370.626 533.734 371.623 532.116 373.289C530.497 374.956 529.565 377.156 529.523 379.406C529.424 380.508 529.551 381.604 529.897 382.626C530.242 383.648 530.799 384.574 531.532 385.346C530.66 386.073 529.934 386.961 529.4 387.957C528.865 388.952 528.534 390.034 528.425 391.134C528.053 393.375 528.577 395.613 529.881 397.357C531.185 399.101 533.164 400.207 535.38 400.432C537.597 400.657 539.871 399.983 541.702 398.558C543.533 397.133 544.77 395.073 545.142 392.832L579.169 393.729C579.128 395.978 579.981 398.093 581.541 399.607C583.101 401.122 585.24 401.912 587.488 401.805C589.735 401.697 591.907 400.7 593.525 399.034C595.144 397.367 596.076 395.167 596.117 392.917C596.217 391.815 596.09 390.719 595.744 389.697C595.399 388.675 594.842 387.749 594.109 386.977C595.006 386.234 595.749 385.32 596.29 384.295C596.831 383.269 597.158 382.155 597.249 381.025C597.621 378.785 597.097 376.546 595.793 374.803C594.489 373.059 592.51 371.953 590.294 371.728C588.077 371.503 585.803 372.177 583.972 373.602C582.141 375.027 580.904 377.087 580.532 379.327L580.499 379.491Z" stroke="#EF2C2C" stroke-opacity="0.35" stroke-width="4" stroke-linejoin="round"/>
<path d="M1277.63 734.74L1254.37 759.84C1252.74 758.316 1250.6 757.556 1248.45 757.729C1246.29 757.901 1244.28 758.992 1242.87 760.76C1241.46 762.529 1240.75 764.831 1240.91 767.159C1241.07 769.488 1242.08 771.653 1243.72 773.177C1244.47 773.984 1245.37 774.616 1246.36 775.033C1247.34 775.451 1248.4 775.645 1249.46 775.605C1249.42 776.745 1249.59 777.883 1249.97 778.948C1250.36 780.012 1250.94 780.98 1251.68 781.793C1253.09 783.562 1255.1 784.652 1257.26 784.825C1259.41 784.997 1261.55 784.238 1263.18 782.713C1264.82 781.189 1265.83 779.024 1265.99 776.695C1266.15 774.367 1265.45 772.065 1264.04 770.296L1287.29 745.196C1288.93 746.72 1291.06 747.48 1293.22 747.307C1295.38 747.135 1297.38 746.044 1298.79 744.276C1300.21 742.507 1300.91 740.205 1300.75 737.877C1300.59 735.548 1299.58 733.383 1297.94 731.859C1297.19 731.052 1296.29 730.42 1295.31 730.003C1294.32 729.585 1293.27 729.391 1292.21 729.431C1292.25 728.261 1292.07 727.093 1291.67 726.004C1291.27 724.914 1290.66 723.928 1289.88 723.11C1288.47 721.341 1286.47 720.25 1284.31 720.078C1282.15 719.905 1280.02 720.665 1278.38 722.189C1276.74 723.714 1275.73 725.879 1275.57 728.207C1275.41 730.536 1276.12 732.838 1277.53 734.606L1277.63 734.74Z" stroke="#EF2C2C" stroke-opacity="0.35" stroke-width="4" stroke-linejoin="round"/>
<path d="M822.723 706.513L816.369 672.745C818.554 672.309 820.42 671.018 821.554 669.157C822.689 667.297 823 665.018 822.419 662.823C821.838 660.628 820.412 658.697 818.456 657.453C816.499 656.21 814.172 655.757 811.987 656.193C810.899 656.33 809.865 656.688 808.949 657.245C808.033 657.803 807.256 658.549 806.664 659.436C805.776 658.73 804.762 658.202 803.685 657.886C802.608 657.57 801.491 657.472 800.403 657.599C798.156 657.707 796.101 658.699 794.69 660.356C793.279 662.013 792.629 664.2 792.881 666.435C793.134 668.671 794.269 670.771 796.037 672.276C797.804 673.78 800.06 674.564 802.307 674.455L808.661 708.223C806.476 708.659 804.61 709.95 803.476 711.811C802.341 713.672 802.03 715.95 802.611 718.145C803.192 720.34 804.618 722.272 806.574 723.515C808.531 724.758 810.858 725.211 813.043 724.775C814.131 724.639 815.165 724.281 816.081 723.723C816.997 723.165 817.774 722.419 818.366 721.532C819.276 722.26 820.318 722.799 821.425 723.115C822.532 723.432 823.679 723.517 824.792 723.367C827.039 723.259 829.094 722.267 830.505 720.61C831.916 718.953 832.566 716.766 832.314 714.531C832.061 712.296 830.926 710.195 829.158 708.691C827.391 707.187 825.135 706.403 822.888 706.511L822.723 706.513Z" stroke="#EF2C2C" stroke-opacity="0.35" stroke-width="4" stroke-linejoin="round"/>
<path d="M453.596 41.3522L476.743 66.5529C475.121 68.0953 474.22 70.1893 474.237 72.3745C474.255 74.5596 475.19 76.6568 476.837 78.2047C478.484 79.7527 480.708 80.6245 483.019 80.6285C485.331 80.6324 487.541 79.7682 489.163 78.2258C490.013 77.5269 490.701 76.669 491.183 75.7052C491.665 74.7415 491.932 73.6924 491.967 72.6232C493.091 72.7453 494.228 72.6484 495.306 72.3386C496.385 72.0287 497.382 71.5124 498.238 70.8216C500.085 69.5243 501.304 67.5816 501.628 65.4209C501.951 63.2603 501.352 61.0586 499.962 59.3002C498.572 57.5418 496.505 56.3708 494.216 56.0447C491.927 55.7187 489.604 56.2643 487.757 57.5616L464.609 32.3609C466.232 30.8186 467.133 28.7245 467.115 26.5394C467.098 24.3543 466.163 22.2571 464.516 20.7091C462.869 19.1612 460.645 18.2894 458.333 18.2854C456.021 18.2814 453.812 19.1457 452.189 20.688C451.339 21.387 450.652 22.2449 450.169 23.2087C449.687 24.1724 449.42 25.2214 449.385 26.2906C448.232 26.1619 447.066 26.2638 445.961 26.5897C444.857 26.9157 443.84 27.4583 442.976 28.1824C441.129 29.4797 439.909 31.4224 439.586 33.583C439.263 35.7437 439.862 37.9454 441.252 39.7038C442.642 41.4622 444.708 42.6332 446.997 42.9592C449.286 43.2853 451.61 42.7396 453.457 41.4424L453.596 41.3522Z" stroke="#EF2C2C" stroke-opacity="0.35" stroke-width="4" stroke-linejoin="round"/>
<path d="M1349.43 441.954L1326.18 467.054C1324.54 465.529 1322.41 464.77 1320.25 464.943C1318.09 465.115 1316.09 466.206 1314.68 467.974C1313.26 469.743 1312.56 472.045 1312.72 474.373C1312.88 476.702 1313.89 478.867 1315.53 480.391C1316.28 481.198 1317.18 481.83 1318.16 482.247C1319.15 482.665 1320.2 482.859 1321.26 482.819C1321.22 483.959 1321.4 485.097 1321.78 486.162C1322.16 487.226 1322.74 488.194 1323.49 489.007C1324.9 490.776 1326.9 491.866 1329.06 492.039C1331.22 492.211 1333.35 491.452 1334.99 489.927C1336.63 488.403 1337.64 486.238 1337.8 483.909C1337.96 481.581 1337.25 479.279 1335.84 477.51L1359.1 452.41C1360.73 453.934 1362.87 454.694 1365.02 454.521C1367.18 454.349 1369.19 453.258 1370.6 451.49C1372.01 449.721 1372.71 447.419 1372.56 445.091C1372.4 442.762 1371.38 440.597 1369.75 439.073C1369 438.266 1368.1 437.634 1367.11 437.217C1366.13 436.799 1365.07 436.605 1364.01 436.645C1364.06 435.475 1363.88 434.307 1363.48 433.218C1363.07 432.128 1362.47 431.142 1361.69 430.324C1360.28 428.555 1358.27 427.464 1356.12 427.292C1353.96 427.119 1351.83 427.879 1350.19 429.403C1348.55 430.928 1347.54 433.093 1347.38 435.421C1347.22 437.75 1347.92 440.052 1349.33 441.82L1349.43 441.954Z" stroke="#EF2C2C" stroke-opacity="0.35" stroke-width="4" stroke-linejoin="round"/>
<path d="M414.512 777.448L437.659 802.648C436.037 804.191 435.135 806.285 435.153 808.47C435.171 810.655 436.106 812.752 437.753 814.3C439.4 815.848 441.624 816.72 443.935 816.724C446.247 816.728 448.457 815.864 450.079 814.321C450.929 813.622 451.617 812.764 452.099 811.801C452.581 810.837 452.848 809.788 452.883 808.719C454.007 808.841 455.143 808.744 456.222 808.434C457.301 808.124 458.298 807.608 459.154 806.917C461.001 805.62 462.22 803.677 462.543 801.516C462.867 799.356 462.268 797.154 460.878 795.396C459.488 793.637 457.421 792.466 455.132 792.14C452.843 791.814 450.52 792.36 448.672 793.657L425.525 768.456C427.147 766.914 428.049 764.82 428.031 762.635C428.014 760.45 427.078 758.353 425.431 756.805C423.784 755.257 421.56 754.385 419.249 754.381C416.937 754.377 414.727 755.241 413.105 756.784C412.255 757.482 411.568 758.34 411.085 759.304C410.603 760.268 410.336 761.317 410.301 762.386C409.148 762.257 407.981 762.359 406.877 762.685C405.773 763.011 404.756 763.554 403.892 764.278C402.045 765.575 400.825 767.518 400.502 769.679C400.179 771.839 400.778 774.041 402.168 775.799C403.558 777.558 405.624 778.729 407.913 779.055C410.202 779.381 412.526 778.835 414.373 777.538L414.512 777.448Z" stroke="#EF2C2C" stroke-opacity="0.35" stroke-width="4" stroke-linejoin="round"/>
<path d="M729.883 222.201L760.686 207.574C761.649 209.602 763.352 211.105 765.419 211.751C767.486 212.397 769.749 212.133 771.709 211.018C773.67 209.903 775.167 208.027 775.872 205.804C776.577 203.581 776.432 201.193 775.469 199.164C775.067 198.134 774.466 197.212 773.703 196.456C772.94 195.699 772.031 195.124 771.032 194.767C771.489 193.722 771.742 192.599 771.777 191.467C771.812 190.336 771.627 189.219 771.235 188.186C770.571 186.016 769.108 184.253 767.167 183.286C765.226 182.32 762.967 182.228 760.886 183.032C758.805 183.836 757.073 185.469 756.071 187.573C755.069 189.676 754.879 192.078 755.542 194.249L724.74 208.876C723.776 206.847 722.074 205.344 720.007 204.698C717.939 204.053 715.676 204.316 713.716 205.431C711.756 206.546 710.258 208.422 709.553 210.645C708.848 212.868 708.994 215.256 709.957 217.285C710.359 218.315 710.96 219.237 711.723 219.993C712.486 220.75 713.395 221.325 714.393 221.683C713.922 222.753 713.664 223.907 713.637 225.068C713.609 226.229 713.813 227.373 714.234 228.424C714.898 230.595 716.361 232.357 718.302 233.324C720.243 234.29 722.502 234.382 724.583 233.578C726.664 232.774 728.396 231.141 729.398 229.037C730.4 226.934 730.59 224.532 729.926 222.361L729.883 222.201Z" stroke="#EF2C2C" stroke-opacity="0.35" stroke-width="4" stroke-linejoin="round"/>
<defs>
<clipPath id="clip0_43_713">
<rect width="59.8607" height="60.3538" fill="white" transform="matrix(0.863053 0.505113 -0.492866 0.870105 1153.75 59)"/>
</clipPath>
<clipPath id="clip1_43_713">
<rect width="58.0845" height="58.2499" fill="white" transform="matrix(0.983057 -0.183302 0.182226 0.983257 777 59.647)"/>
</clipPath>
<clipPath id="clip2_43_713">
<rect width="58.0853" height="58.2491" fill="white" transform="matrix(0.9809 -0.194515 0.193378 0.981124 153.076 628.03)"/>
</clipPath>
<clipPath id="clip3_43_713">
<rect width="58.0903" height="58.2442" fill="white" transform="matrix(0.966423 0.256955 -0.255497 0.96681 107.326 306.692)"/>
</clipPath>
<clipPath id="clip4_43_713">
<rect width="59.6684" height="60.5439" fill="white" transform="matrix(0.97161 0.236588 -0.229387 0.973335 548.976 107.606)"/>
</clipPath>
<clipPath id="clip5_43_713">
<rect width="59.6992" height="60.5135" fill="white" transform="matrix(0.954974 0.296691 -0.287954 0.957644 1087.24 669.982)"/>
</clipPath>
<clipPath id="clip6_43_713">
<rect width="58.0817" height="58.2527" fill="white" transform="matrix(0.991284 -0.131745 0.130958 0.991388 375.392 526.189)"/>
</clipPath>
<clipPath id="clip7_43_713">
<rect width="59.6464" height="60.5655" fill="white" transform="matrix(0.983298 -0.182005 0.176338 0.98433 797 509.856)"/>
</clipPath>
<clipPath id="clip8_43_713">
<rect width="59.6464" height="60.5655" fill="white" transform="matrix(0.983298 -0.182005 0.176338 0.98433 1265.96 294.974)"/>
</clipPath>
<clipPath id="clip9_43_713">
<rect width="59.6464" height="60.5655" fill="white" transform="matrix(0.983298 -0.182005 0.176338 0.98433 1270.67 587.209)"/>
</clipPath>
<clipPath id="clip10_43_713">
<rect width="58.0853" height="58.2491" fill="white" transform="matrix(0.731407 0.681941 -0.682788 0.730616 22.7639 653.14)"/>
</clipPath>
</defs>
</svg>
