<svg width="20" height="22" viewBox="0 0 20 22" fill="none" xmlns="http://www.w3.org/2000/svg">
<path d="M11.6666 1.83331H4.99998C4.55795 1.83331 4.13403 2.02647 3.82147 2.37028C3.50891 2.7141 3.33331 3.18042 3.33331 3.66665V18.3333C3.33331 18.8195 3.50891 19.2859 3.82147 19.6297C4.13403 19.9735 4.55795 20.1666 4.99998 20.1666H15C15.442 20.1666 15.8659 19.9735 16.1785 19.6297C16.4911 19.2859 16.6666 18.8195 16.6666 18.3333V7.33331L11.6666 1.83331Z" stroke="black" stroke-width="2" stroke-linecap="round" stroke-linejoin="round"/>
<path d="M11.6667 1.83331V7.33331H16.6667" stroke="black" stroke-width="2" stroke-linecap="round" stroke-linejoin="round"/>
<path d="M13.3334 11.9166H6.66669" stroke="black" stroke-width="2" stroke-linecap="round" stroke-linejoin="round"/>
<path d="M13.3334 15.5833H6.66669" stroke="black" stroke-width="2" stroke-linecap="round" stroke-linejoin="round"/>
<path d="M8.33335 8.25H7.50002H6.66669" stroke="black" stroke-width="2" stroke-linecap="round" stroke-linejoin="round"/>
</svg>
