<svg width="208" height="214" viewBox="0 0 208 214" fill="none" xmlns="http://www.w3.org/2000/svg">
<path d="M104 0C117.791 0 131.018 5.63659 140.77 15.6698C150.521 25.703 156 39.3109 156 53.5C156 67.6891 150.521 81.297 140.77 91.3302C131.018 101.363 117.791 107 104 107C90.2087 107 76.9823 101.363 67.2304 91.3302C57.4786 81.297 52 67.6891 52 53.5C52 39.3109 57.4786 25.703 67.2304 15.6698C76.9823 5.63659 90.2087 0 104 0ZM104 133.75C161.46 133.75 208 157.691 208 187.25V214H0V187.25C0 157.691 46.54 133.75 104 133.75Z" fill="black"/>
</svg>
